<svg id="Layer_1" data-name="Layer 1" xmlns="http://www.w3.org/2000/svg" viewBox="0 0 990.47 158.31"><title>file (1)</title><path d="M980.23,737c-20.49,0-40.57.13-60.65-.11-4.15,0-8.27-1.63-12.44-2.25a18.65,18.65,0,0,0-5.57.23c-3.91.61-7.77,2-11.67,2-15.68.24-31.36.19-47,.06-8.5-.07-17.12.28-25.46-1-17-2.6-28-15-28.08-32.74-.08-18.12.17-36.25-.08-54.38-.18-13,7.09-16.63,17.56-18a23.39,23.39,0,0,1,3,0c5.93,0,6.25.34,6.25,6.5v63.88c0,8.94,4.42,13.38,13.32,13.38,14.23,0,28.46,0,43.73,0-4.28-5-7.55-9.91-11.8-13.68-7-6.26-6.54-21.19,4-27.77,9.82-6.15,20.44-9.34,32-10.56,14.52-1.51,28,1.28,40.92,7.41,6.16,2.92,12.08,6.7,13.75,14.25,1.34,6.08.17,11.54-4,16.29-3.81,4.38-7.59,8.77-12.18,14.06h8.62c11.51,0,23-.22,34.53.07,10.5.26,14.73-5.22,14.9-15,.3-16.83.24-33.67,0-50.5-.17-13.22,6.47-17,16.78-18.27,9.09-1.11,9.17-.81,9.17,8.2,0,21.15-.26,42.3.09,63.45.29,17.36-11.59,31.29-28.68,33.62-3.52.48-7.09.59-11,.87M920.18,694.6c2.14-2.87,1-5.38-1.57-6.73a37.33,37.33,0,0,0-10.93-4.14,23.33,23.33,0,0,0-17.1,3.63c-2.24,1.51-4.24,4-1.9,6.85,5,6.07,10.33,11.91,15.75,18.11C909.74,706.33,914.75,700.69,920.18,694.6Z" transform="translate(-80.39 -619.56)" fill="#f06725"/><path d="M547.69,723c-8.4-13.37-9.17-27-1-40.06,6.37-10.15,16.47-15.54,28.49-16.67,7.24-.69,14.54-.91,21.84-1.34,2.45-8.5,7.92-12.56,17.26-12.51,10.55.06,9.09-1.34,9.15,9.15.07,13.1.24,26.2-.06,39.29-.19,8.26,6.58,14.59,13.91,13.83,5.13-.54,10.35-.09,15.54-.11,8.85,0,13.74-4.83,13.78-13.79.08-17.13.18-34.25,0-51.38-.16-13.11,6.9-17.92,18.8-18.53,7.15-.37,7.16-.11,7.16,7.22,0,19.14,0,38.28,0,57.42a64.7,64.7,0,0,0,.94,10.2c.77,4.65,6.07,8.65,11.74,8.81,6.47.19,13,.22,19.43,0,7.09-.24,11.67-5.73,11.86-14.07.14-6.18,0-12.37,0-18.56,0-8.1,5.48-14.64,13.5-15.56,4-.45,8-.08,12.35-.08,0,14.26,1.08,28.17-.29,41.82-1.5,14.9-11.06,24.91-25.78,27.51-15.8,2.79-32.25,4.11-47.64-1.52-7-2.58-12.27-2.8-18.69.57-3.47,1.81-8,2.12-12,2.3-7.9.34-15.82.09-23.74.1a43.12,43.12,0,0,1-23.59-6.62c-7.72,6.58-17.24,8.9-26.93,8.88-13.09,0-25.38-3.42-34.52-13.91-.55-.64-.92-1.43-1.59-2.39M589,715.41a12.31,12.31,0,0,0,7.44-10.19c.62-5.89.16-11.91.16-18.24-5.57,0-10.73-.29-15.82.13a12.48,12.48,0,0,0-6.43,2.92c-6,5-7.24,13-3.58,20C573.66,715.54,580.17,717.64,589,715.41Z" transform="translate(-80.39 -619.56)" fill="#f06725"/><path d="M210.93,667.35c10.2-5.69,20.17-11.12,30-16.73,4.12-2.35,6-2.28,7.78,1,2.27,4.22-1.38,4.85-3.77,6-7.57,3.61-15.22,7.07-22.81,10.65a6.29,6.29,0,0,0-2.89,2.92c6.74.36,13.47.73,20.21,1,2,.09,4.05-.16,6,.1,3,.38,5.38,1.33,5,5.35-.32,3.59-1.65,5.66-5.36,5.78-2.6.08-3.81.89-4.36,3.92-2.64,14.64-5.6,29.23-8.69,43.78-1.28,6-2.51,6.66-8.9,6.71q-50.85.43-101.7.82a129,129,0,0,1-16.67-1,5.75,5.75,0,0,1-3.79-3.61c-2.79-11.41-5.26-22.9-7.77-34.38-.91-4.14-1.9-8.3-2.39-12.5-.36-3.09-2.08-4-4.61-3.7-5,.54-5.16-3.45-5.78-6.37-.73-3.4,2.34-3.67,4.74-4.07a61.15,61.15,0,0,1,6.31-.81c7.42-.39,14.85-.68,23.57-1.07-2-1.44-3-2.47-4.19-3-8.14-3.72-16.32-7.34-24.5-11-2.5-1.11-4.94-2.27-2.65-5.57,1.86-2.68,4.29-3.55,7.31-1.81,8.87,5.1,17.51,10.68,26.69,15.14,9.93,4.83,20,10.17,30.66,12.48,16.53,3.58,33.44,3.72,49.34-4.27,4.18-2.1,8.58-3.76,13.15-5.8m-104.71,26.5c1.45,11.36,2.81,22.73,4.47,34.06.21,1.4,2.07,3.6,3.19,3.62,2.54.05,3.88-1.81,3.59-4.66-.71-7-1-14.17-2-21.18a79.85,79.85,0,0,0-3.61-13.39c-.4-1.24-2-2.09-3-3.12a26.43,26.43,0,0,0-2.65,4.67m65.63,8.24c0,8.1-.24,16.21.2,24.28.1,1.83,2.58,3.53,4,5.29,1.19-1.76,3.29-3.45,3.44-5.29.64-8.26.85-16.57,1-24.87,0-3.06,0-7.2-4-7.42-4.47-.25-4.16,4.09-4.61,8m43.92,7.46c-.53,5.8-1,11.6-1.63,17.38-.3,2.88,1.16,4.75,3.65,4.58,1.18-.08,2.82-2.52,3.16-4.12,1.4-6.63,2.6-13.33,3.44-20.06.7-5.53.8-11.12,1.17-16.69l-1.75-.87c-2,2.14-4.91,4-5.83,6.49-1.42,3.91-1.48,8.32-2.21,13.29m-15.42,16.54c.86-9.2,1.89-18.39,2.42-27.61.08-1.47-2.06-3.07-3.17-4.61a55.25,55.25,0,0,0-4.47,3.55,3.7,3.7,0,0,0-.77,2.38c-.34,9.3-.75,18.6-.77,27.9,0,1.32,1.94,2.64,3,4a39.44,39.44,0,0,0,3-2.89c.43-.49.5-1.3.75-2.68m-63.26,3.65c.36-5.84,1.07-11.68,1-17.51a107.49,107.49,0,0,0-1.74-14.78c-.39-2.54-1.93-3.89-4.83-3.65-3.06.26-2.89,2.28-2.8,4.3.25,6.13.44,12.27.93,18.39a94,94,0,0,0,1.74,10.9c.72,3.57,2.7,4.55,5.73,2.35m20.72-.82v-36.2c-2.74,1.48-5.5,2-6.32,3.63-1.16,2.24-1.16,5.23-1.14,7.89,0,4.41.38,8.82.81,13.2.39,3.94,1,7.85,1.68,11.74.17.93,1.2,1.7,1.83,2.54A37.68,37.68,0,0,0,157.81,728.92Z" transform="translate(-80.39 -619.56)" fill="#f06725"/><path d="M485.11,694.34c1,9,1.17,17.55-2.95,25.7-6.17,12.22-16.66,17.48-29.59,18.65-14.35,1.31-28.3-.48-41.59-6.4a4.31,4.31,0,0,0-3.27,0c-10,5.06-20.58,5.85-31.51,4.78-5.54-.55-11.21-.11-16.67-1-14.88-2.46-25.36-11.12-27.76-26-1.16-7.15-.91-14.56-1-21.85-.14-13,.14-25.9-.1-38.85-.23-12.27,7.38-18.25,18.62-18.5,9.16-.2,8.19-1,8.2,7.91,0,20.58.22,41.16-.1,61.73-.13,8.45,6.45,15,14,14.17,5.13-.54,10.43.38,15.51-.35,7.53-1.09,10.36-7.66,13.72-13.43,5.86-10.07,11.15-20.53,19.64-28.83,8.81-8.63,19.25-10.93,31.33-9.56,11.58,1.31,20.79,6.14,26.93,15.81,3,4.7,4.33,10.42,6.54,16m-48.6-2.26c-4.05,6.76-8.11,13.52-12.91,21.51,7.93,1.28,14.95,2.88,22.06,3.43,6.57.51,11.18-3,11.94-9.54.62-5.32.56-11.2-1.12-16.19-2.23-6.62-8.91-10.39-15.45-5C439.33,687.63,438.24,689.77,436.51,692.08Z" transform="translate(-80.39 -619.56)" fill="#f06725"/><path d="M236.62,757.68c-.05-3.79,1.35-5.24,5-4.44,5,1.11,10,2.19,15,2.84,16.48,2.14,23.78-5.05,24-19.49.24-17.53.12-35.07,0-52.61-.05-10.34,5.38-17.84,17.15-17.8a13.54,13.54,0,0,0,2.93-.51c4.66-1,6.7.55,6.7,5.35,0,20.41.36,40.83-.12,61.24-.29,12.42-2.34,24.57-10.9,34.66a29.43,29.43,0,0,1-20.18,10.49c-7.89.76-16,1-23.63-2.38S238.65,766.8,236.62,757.68Z" transform="translate(-80.39 -619.56)" fill="#f06725"/><path d="M1044.05,686.07c0-12.65.08-24.87,0-37.09-.1-13.08,7-17.41,17.85-18,10.27-.59,8.91-1.14,8.93,8.36q.07,39.23,0,78.47a55.28,55.28,0,0,1-.8,6.74c-1.08,8.33-7.63,12.12-15,12.34-13.08.39-10.75,1.9-10.87-10.25C1044,713.23,1044.05,699.87,1044.05,686.07Z" transform="translate(-80.39 -619.56)" fill="#f06725"/><path d="M762.49,653.25c-8.86.29-17.29.57-25.73.87a5.63,5.63,0,0,0-1.67.33c-2.07.71-4.89,2.43-5.7-.63-.58-2.19.23-6.33,1.76-7.18,4-2.24,3.55-4.64,3.06-8.44-1.35-10.39,6.26-18.39,16.9-18.63,8.33-.18,13.42,2.57,15.09,8.4.34,1.2.41,3.2-.29,3.79s-2.56.23-3.86,0c-2.77-.51-5.48-1.6-8.25-1.74-4.8-.24-6.74,1.76-6.81,6.18-.06,3.79,2.59,6.49,6.74,6.66,3,.12,6.08-.29,9,.1,6.48.87,9.42,2.73,8,10.29Z" transform="translate(-80.39 -619.56)" fill="#f06725"/><path d="M602.08,645.55c-6.45,1.54-13.48-2.27-14.75-7.85a11.67,11.67,0,0,1,9.69-14A15,15,0,0,1,609,626.38a10,10,0,0,1,4,10.6C611.94,641.71,607.9,644.8,602.08,645.55Z" transform="translate(-80.39 -619.56)" fill="#f06725"/><path d="M574.27,645.49c-4.9,1.32-11.58-.77-14.15-4.29a11.82,11.82,0,0,1-.19-12.81c2.37-3.49,8.55-5.64,13.27-4.62,7.29,1.58,10.53,4.84,10.57,10.63S580.52,644.14,574.27,645.49Z" transform="translate(-80.39 -619.56)" fill="#f06725"/><path d="M143.73,645.11c-3.37-4.14-4.33-8.59-1.82-12.93a12.25,12.25,0,0,1,12.18-6.41c5.56.59,10.46,2.91,12.35,8.92,1.65,5.24-2.75,12.45-8.59,13.21C153.1,648.52,148.11,648.8,143.73,645.11Z" transform="translate(-80.39 -619.56)" fill="#f06725"/><path d="M194.12,642.33c-4.68,7.25-12.92,6.45-17.78,4.88s-6.9-5.54-7-10.24c-.07-4.52,2.57-7.67,6.68-9.6,6-2.81,12.47-1.49,16.4,2.72C196,633.86,195.51,637.76,194.12,642.33Z" transform="translate(-80.39 -619.56)" fill="#f06725"/></svg>