<svg id="Layer_1" data-name="Layer 1" xmlns="http://www.w3.org/2000/svg" viewBox="0 0 24 23.4"><title>icon-cart2</title><path d="M24.5,3.4H3.8V3a1.61,1.61,0,0,0-.5-1.1,3,3,0,0,0-1.6-.5H.5v1H1.7a.91.91,0,0,1,.7.3.55.55,0,0,1,.3.5L4.3,16.7a3,3,0,0,0,1,1.9,3,3,0,0,0,2,.8H20.5V18.3H7.3a1.75,1.75,0,0,1-1.2-.4c-.3-.3-.7-.7-.7-1s-.2-1.6-.2-1.6H22.4Zm-3,11H5L3.8,4.4H23.3Z" transform="translate(-0.5 -1.4)" fill="#3bb77e"/><path d="M7.5,24.3a2,2,0,1,0-2-2A2,2,0,0,0,7.5,24.3Z" transform="translate(-0.5 -1.4)" fill="none" stroke="#3bb77e" stroke-miterlimit="10"/><path d="M17.5,24.3a2,2,0,1,0-2-2A2,2,0,0,0,17.5,24.3Z" transform="translate(-0.5 -1.4)" fill="none" stroke="#3bb77e" stroke-miterlimit="10"/></svg>