<svg id="Layer_1" data-name="Layer 1" xmlns="http://www.w3.org/2000/svg" viewBox="0 0 25 25"><title>icon-user2</title><path d="M21.5,24.5h-1s.12-3.83,0-5.1a3.61,3.61,0,0,0-1.05-2.74,4.66,4.66,0,0,0-3-1.09,56.21,56.21,0,0,0-8,0,4,4,0,0,0-2.79,1.26,3.53,3.53,0,0,0-1,2.57c-.11,1.24,0,5,0,5H3.5v-5A4.68,4.68,0,0,1,5,15.9a5,5,0,0,1,3.5-1.4h8.1a5,5,0,0,1,5,5Z" fill="#3bb77e"/><path d="M12.5,12.5a6.35,6.35,0,0,1-3.3-1A6,6,0,0,1,7.5,3.2a6.07,6.07,0,0,1,8.3-1.7,6.07,6.07,0,0,1,1.7,8.3c-.2.3-.5.6-.7.9A6,6,0,0,1,12.5,12.5Zm0-10.85A4.92,4.92,0,0,0,8,4.64,5.16,5.16,0,0,0,7.7,7.47a4.71,4.71,0,0,0,3.82,3.79,4.9,4.9,0,0,0,5-2,4.82,4.82,0,0,0-1.31-6.69h0A4.2,4.2,0,0,0,12.5,1.65Z" fill="#3bb77e"/></svg>