<?xml version="1.0" encoding="utf-8"?>
<!-- Generator: Adobe Illustrator 23.0.1, SVG Export Plug-In . SVG Version: 6.00 Build 0)  -->
<svg version="1.1" id="Layer_1" xmlns="http://www.w3.org/2000/svg" xmlns:xlink="http://www.w3.org/1999/xlink" x="0px" y="0px"
	 viewBox="0 0 29 29" enable-background="new 0 0 29 29" xml:space="preserve">
<path fill-rule="evenodd" clip-rule="evenodd" fill="#4285F4" d="M27.6,14.6c0-1-0.1-1.9-0.2-2.8H14.5v5.3h7.3
	c-0.3,1.7-1.3,3.1-2.7,4.1v3.4h4.4C26.1,22.2,27.6,18.7,27.6,14.6z"/>
<path fill-rule="evenodd" clip-rule="evenodd" fill="#34A853" d="M14.5,27.9c3.7,0,6.8-1.2,9-3.3l-4.4-3.4c-1.2,0.8-2.8,1.3-4.6,1.3
	c-3.5,0-6.5-2.4-7.6-5.6H2.3v3.5C4.6,24.8,9.2,27.9,14.5,27.9z"/>
<path fill-rule="evenodd" clip-rule="evenodd" fill="#FBBC05" d="M6.9,16.9c-0.3-0.8-0.4-1.7-0.4-2.6c0-0.9,0.2-1.8,0.4-2.6V8.2H2.3
	c-0.9,1.8-1.4,3.9-1.4,6.1s0.5,4.3,1.4,6.1L6.9,16.9z"/>
<path fill-rule="evenodd" clip-rule="evenodd" fill="#EA4335" d="M14.5,6.1c2,0,3.8,0.7,5.2,2l3.9-3.9c-2.4-2.2-5.4-3.5-9.1-3.5
	c-5.3,0-9.9,3.1-12.2,7.5l4.5,3.5C8,8.5,11,6.1,14.5,6.1z"/>
</svg>
